<?xml version="1.0" standalone="no"?>
<!DOCTYPE svg PUBLIC "-//W3C//DTD SVG 20010904//EN"
 "http://www.w3.org/TR/2001/REC-SVG-20010904/DTD/svg10.dtd">
<svg version="1.0" xmlns="http://www.w3.org/2000/svg"
 width="490.000000pt" height="256.000000pt" viewBox="0 0 490.000000 256.000000"
 preserveAspectRatio="xMidYMid meet">

<g transform="translate(0.000000,256.000000) scale(0.100000,-0.100000)"
fill="#000000" stroke="none">
<path d="M1190 2464 c-14 -2 -56 -9 -95 -15 -302 -49 -603 -247 -782 -516
-192 -289 -245 -664 -141 -993 135 -424 486 -733 928 -816 111 -21 309 -21
420 0 442 83 793 392 928 816 41 131 56 253 49 408 -23 533 -411 983 -949
1098 -70 15 -307 27 -358 18z m404 -292 c48 -28 69 -66 74 -129 3 -49 0 -64
-20 -93 -37 -55 -83 -80 -143 -80 -124 0 -200 122 -146 233 43 89 148 120 235
69z m-472 -264 c25 -14 51 -43 73 -78 19 -31 45 -61 57 -67 13 -5 96 -29 186
-53 l163 -43 69 33 c87 42 143 44 202 5 52 -34 83 -101 74 -158 -10 -61 -35
-95 -103 -137 -53 -34 -63 -45 -76 -87 -31 -96 -80 -289 -79 -313 0 -14 14
-51 31 -84 17 -32 31 -73 31 -92 0 -109 -111 -195 -212 -165 -52 16 -80 40
-123 107 -24 37 -43 55 -67 62 -93 30 -302 82 -327 82 -16 0 -55 -13 -86 -30
-69 -36 -115 -38 -175 -7 -74 37 -109 126 -79 204 14 37 56 81 100 103 19 10
41 25 48 34 15 18 101 325 101 361 0 14 -13 49 -30 78 -33 60 -39 117 -16 170
37 87 151 123 238 75z m-489 -262 c72 -30 115 -116 96 -191 -27 -106 -148
-156 -243 -102 -112 63 -108 229 7 286 49 24 94 27 140 7z m1502 -405 c101
-58 102 -218 1 -280 -40 -25 -123 -28 -165 -6 -97 50 -119 185 -42 259 58 55
139 66 206 27z m-976 -521 c80 -23 133 -117 112 -197 -21 -78 -80 -123 -161
-123 -149 0 -218 161 -119 275 43 49 101 64 168 45z"/>
<path d="M1180 1641 c-64 -20 -122 -66 -150 -120 -24 -46 -72 -247 -72 -299 0
-71 43 -147 104 -185 53 -33 251 -87 320 -87 60 0 113 21 156 63 46 44 55 63
92 202 38 143 37 199 -4 269 -38 65 -82 90 -230 131 -130 35 -169 40 -216 26z
m214 -204 c89 -51 105 -190 29 -259 -36 -33 -93 -50 -142 -43 -59 9 -126 72
-136 129 -27 140 124 245 249 173z"/>
</g>
</svg>
