<?xml version="1.0" standalone="no"?>
<!DOCTYPE svg PUBLIC "-//W3C//DTD SVG 20010904//EN"
 "http://www.w3.org/TR/2001/REC-SVG-20010904/DTD/svg10.dtd">
<svg version="1.0" xmlns="http://www.w3.org/2000/svg"
 width="512.000000pt" height="256.000000pt" viewBox="0 0 512.000000 256.000000"
 preserveAspectRatio="xMidYMid meet">

<g transform="translate(0.000000,256.000000) scale(0.100000,-0.100000)"
fill="#000000" stroke="none">
<path d="M3425 2523 c-356 -75 -661 -297 -847 -616 l-40 -68 27 -67 c126 -310
127 -650 5 -960 -20 -51 -30 -90 -27 -104 14 -52 153 -245 241 -334 195 -194
477 -334 726 -361 l55 -5 -3 248 c-2 176 -6 252 -15 263 -22 27 47 -26 88 -68
21 -23 46 -41 56 -41 19 0 199 183 199 202 0 18 -172 188 -190 188 -8 0 -55
-39 -105 -88 -49 -48 -78 -73 -63 -57 l27 30 2 244 1 243 -33 36 c-19 21 5 0
51 -46 47 -45 92 -82 100 -82 20 0 200 181 200 200 0 17 -169 190 -186 190 -5
0 -28 -18 -49 -41 -22 -22 -51 -49 -65 -59 l-25 -18 3 241 3 240 -33 36 c-18
20 3 1 47 -41 44 -43 87 -78 95 -78 20 0 200 181 200 200 -1 20 -164 190 -182
190 -8 0 -25 -12 -39 -26 -13 -14 -40 -39 -59 -54 l-35 -28 5 254 5 254 -35
-1 c-19 0 -66 -7 -105 -16z m89 -952 l-39 -36 33 35 c17 20 33 45 33 55 1 19
2 19 6 1 3 -13 -7 -30 -33 -55z m35 -630 c0 -14 -1 -14 -6 -1 -3 8 -20 31 -37
50 l-31 35 38 -34 c20 -19 37 -42 36 -50z"/>
<path d="M1216 2459 c-482 -62 -876 -412 -1002 -889 -34 -128 -43 -336 -20
-466 67 -387 305 -706 651 -875 176 -85 325 -119 525 -119 201 0 349 34 526
120 426 206 681 635 661 1109 -29 690 -649 1208 -1341 1120z m424 -281 c60
-31 90 -77 90 -140 0 -100 -67 -168 -167 -168 -86 0 -152 61 -160 147 -13 132
118 221 237 161z m-458 -270 c25 -14 51 -43 73 -78 19 -31 45 -61 57 -67 13
-5 96 -29 186 -53 l163 -43 69 33 c87 42 143 44 202 5 52 -34 83 -101 74 -158
-10 -61 -35 -95 -103 -138 -60 -37 -63 -41 -82 -106 -44 -153 -74 -269 -73
-293 0 -14 14 -51 31 -84 17 -32 31 -73 31 -92 0 -109 -111 -195 -212 -165
-52 16 -80 40 -123 107 -24 37 -43 55 -67 62 -93 30 -302 82 -327 82 -16 0
-55 -13 -86 -30 -33 -18 -72 -30 -94 -30 -56 0 -122 38 -148 85 -51 90 -13
193 89 246 21 11 44 29 52 42 17 26 96 318 96 353 0 13 -13 48 -30 77 -33 60
-39 117 -16 170 37 87 151 123 238 75z m-489 -262 c45 -19 83 -64 96 -111 29
-112 -57 -213 -174 -203 -69 6 -117 41 -140 103 -52 136 84 268 218 211z
m1502 -405 c50 -29 75 -76 75 -141 0 -98 -62 -161 -158 -162 -186 -1 -237 235
-67 314 46 21 102 18 150 -11z m-973 -521 c52 -15 105 -77 113 -133 13 -88
-49 -173 -135 -184 -60 -8 -106 5 -144 40 -68 65 -69 171 -2 236 48 47 100 59
168 41z"/>
<path d="M1240 1641 c-64 -20 -122 -66 -150 -120 -24 -46 -72 -247 -72 -299 0
-71 43 -147 104 -185 53 -33 251 -87 320 -87 60 0 113 21 156 63 46 44 55 63
92 202 38 143 37 199 -4 269 -38 65 -82 90 -231 131 -130 35 -169 40 -215 26z
m209 -201 c135 -69 98 -283 -53 -305 -147 -22 -245 133 -163 256 44 67 140 88
216 49z"/>
<path d="M3950 1715 c-55 -54 -100 -104 -100 -110 0 -17 174 -185 191 -185 15
0 199 185 199 200 0 3 -43 48 -95 100 l-94 94 -101 -99z"/>
<path d="M4265 1379 l-99 -100 97 -97 97 -97 100 100 c55 55 100 104 100 110
0 14 -172 185 -186 185 -6 0 -55 -45 -109 -101z"/>
<path d="M3925 1030 l-99 -101 94 -94 c52 -52 99 -95 105 -95 16 0 195 184
195 200 0 17 -169 190 -186 190 -6 0 -55 -45 -109 -100z"/>
</g>
</svg>
